<?xml version="1.0" standalone="no"?>
<!DOCTYPE svg PUBLIC "-//W3C//DTD SVG 20010904//EN"
 "http://www.w3.org/TR/2001/REC-SVG-20010904/DTD/svg10.dtd">
<svg version="1.0" xmlns="http://www.w3.org/2000/svg"
 width="961.000000pt" height="560.000000pt" viewBox="0 0 961.000000 560.000000"
 preserveAspectRatio="xMidYMid meet">
<metadata>
Created by potrace 1.16, written by Peter Selinger 2001-2019
</metadata>
<g transform="translate(0.000000,560.000000) scale(0.100000,-0.100000)"
fill="#000000" stroke="none">
<path d="M2273 3473 l-53 -4 0 -330 0 -329 75 0 76 0 -18 -25 c-15 -20 -27
-24 -65 -25 -39 0 -50 -5 -72 -31 -39 -46 -36 -101 8 -145 47 -47 104 -48 148
-4 28 29 30 35 26 88 l-5 57 80 103 c77 97 82 102 112 96 35 -6 81 9 111 37
l22 20 90 -55 c79 -49 91 -60 96 -90 12 -65 94 -103 155 -72 39 21 61 63 61
118 0 39 7 52 75 134 l74 92 45 -5 c40 -5 48 -2 76 25 83 84 -16 228 -122 178
-46 -22 -62 -54 -56 -110 5 -44 4 -47 -68 -133 l-73 -88 -49 -1 c-27 -1 -62
-9 -78 -18 l-30 -18 -96 59 c-75 46 -98 65 -107 91 -26 69 -126 82 -185 23
-27 -28 -31 -38 -31 -87 0 -51 -4 -59 -59 -130 -32 -42 -61 -73 -64 -69 -4 4
-9 118 -12 254 l-5 248 110 7 c61 3 203 6 317 6 206 0 207 0 285 -30 42 -16
83 -30 89 -30 6 0 28 20 48 44 l36 45 -29 20 c-47 34 -121 62 -201 77 -54 10
-160 13 -380 12 -168 -1 -329 -3 -357 -5z"/>
<path d="M5050 3030 l0 -290 65 0 65 0 0 110 0 110 133 0 133 0 21 65 21 65
-154 0 -154 0 0 50 0 50 165 0 165 0 0 65 0 65 -230 0 -230 0 0 -290z"/>
<path d="M5580 3030 l0 -290 65 0 65 0 0 290 0 290 -65 0 -65 0 0 -290z"/>
<path d="M5780 3031 l0 -291 195 0 c227 0 252 7 285 75 18 36 20 62 20 216 0
192 -7 222 -63 263 -26 19 -45 21 -233 24 l-204 3 0 -290z m351 149 c17 -10
19 -22 19 -148 0 -94 -4 -142 -12 -150 -8 -8 -49 -12 -120 -12 l-108 0 0 160
0 160 101 0 c55 0 109 -5 120 -10z"/>
<path d="M6350 3030 l0 -290 222 2 221 3 18 50 c10 28 18 56 18 63 1 9 -40 12
-174 12 l-175 0 0 45 0 45 124 0 124 0 18 53 c9 28 19 58 22 65 3 9 -29 12
-142 12 l-146 0 0 50 0 50 165 0 165 0 0 65 0 65 -230 0 -230 0 0 -290z"/>
<path d="M6866 3308 c4 -7 47 -73 96 -145 l88 -133 -88 -132 c-49 -73 -92
-139 -96 -145 -5 -10 12 -13 73 -13 l81 0 52 80 c29 44 55 80 58 80 3 0 29
-36 58 -80 l52 -80 81 0 81 0 -18 28 c-9 15 -50 76 -91 137 -40 60 -73 116
-73 123 0 7 41 73 90 147 50 74 90 137 90 140 0 3 -35 5 -79 5 l-78 0 -53 -80
c-29 -44 -55 -80 -59 -80 -3 0 -30 36 -59 80 l-52 80 -81 0 c-61 0 -78 -3 -73
-12z"/>
</g>
</svg>
